<svg width="224" height="224" viewBox="0 0 224 224" fill="none" xmlns="http://www.w3.org/2000/svg">
<circle cx="112" cy="112" r="112" fill="#96ABAA"/>
<circle cx="35" cy="112" r="3" fill="#707F81"/>
<circle cx="53" cy="57" r="3" fill="#707F81"/>
<circle cx="135" cy="57" r="3" fill="#707F81"/>
<circle cx="172.5" cy="67.5" r="1.5" fill="#707F81"/>
<circle cx="38.5" cy="84.5" r="1.5" fill="#707F81"/>
<circle cx="41.5" cy="41.5" r="1.5" fill="#707F81"/>
<circle cx="143.5" cy="24.5" r="1.5" fill="#707F81"/>
<circle cx="41.5" cy="141.5" r="1.5" fill="#707F81"/>
<circle cx="62.5" cy="113.5" r="1.5" fill="#707F81"/>
<circle cx="86.5" cy="68.5" r="1.5" fill="#707F81"/>
<circle cx="78.5" cy="41.5" r="1.5" fill="#707F81"/>
<circle cx="142.5" cy="115.5" r="1.5" fill="#707F81"/>
<circle cx="210.5" cy="104.5" r="1.5" fill="#707F81"/>
<circle cx="169.5" cy="186.5" r="1.5" fill="#707F81"/>
<circle cx="98.5" cy="139.5" r="1.5" fill="#707F81"/>
<circle cx="68.5" cy="192.5" r="1.5" fill="#707F81"/>
<circle cx="70" cy="162" r="3" fill="#707F81"/>
<circle cx="101" cy="191" r="3" fill="#707F81"/>
<circle cx="132" cy="174" r="3" fill="#707F81"/>
<circle cx="101" cy="106" r="3" fill="#707F81"/>
<circle cx="25" cy="162" r="3" fill="#707F81"/>
<circle cx="10" cy="121" r="3" fill="#707F81"/>
<circle cx="13" cy="86" r="3" fill="#707F81"/>
<circle cx="182" cy="101" r="3" fill="#707F81"/>
<circle cx="192" cy="156" r="3" fill="#707F81"/>
<circle cx="109" cy="20" r="3" fill="#707F81"/>
<circle cx="199.5" cy="109.5" r="7.5" fill="#C07E40"/>
</svg>
