<svg width="153" height="201" viewBox="0 0 153 201" fill="none" xmlns="http://www.w3.org/2000/svg">
<circle cx="77.5" cy="152.5" r="45.5" fill="#61AC63" stroke="#C07E40" stroke-width="6"/>
<mask id="mask0_5_63" style="mask-type:alpha" maskUnits="userSpaceOnUse" x="38" y="123" width="32" height="32">
<rect x="69.4167" y="154.521" width="31.3229" height="31.3229" transform="rotate(-180 69.4167 154.521)" fill="#D9D9D9"/>
</mask>
<g mask="url(#mask0_5_63)">
<path d="M53.7552 128.418C54.9733 128.418 56.1207 128.609 57.1975 128.989C58.2742 129.37 59.2585 129.908 60.1503 130.604L61.9775 128.81C62.2167 128.571 62.5213 128.451 62.891 128.451C63.2608 128.451 63.5654 128.571 63.8046 128.81C64.0439 129.049 64.1635 129.354 64.1635 129.724C64.1635 130.093 64.0439 130.398 63.8046 130.637L62.0101 132.432C62.7062 133.323 63.2445 134.313 63.6252 135.401C64.0058 136.488 64.1962 137.641 64.1962 138.859C64.1962 141.774 63.1847 144.243 61.1618 146.266C59.1388 148.289 56.67 149.3 53.7552 149.3H43.3142V138.859C43.3142 135.945 44.3257 133.476 46.3486 131.453C48.3716 129.43 50.8404 128.418 53.7552 128.418ZM53.7552 131.029C51.58 131.029 49.7311 131.79 48.2084 133.313C46.6858 134.835 45.9245 136.684 45.9245 138.859V146.69H53.7552C55.9304 146.69 57.7793 145.929 59.302 144.406C60.8246 142.884 61.5859 141.035 61.5859 138.859C61.5859 138.011 61.4554 137.201 61.1944 136.429C60.9334 135.656 60.5745 134.955 60.1177 134.324L53.3637 141.078C53.1244 141.317 52.8199 141.437 52.4501 141.437C52.0803 141.437 51.7758 141.317 51.5365 141.078C51.2755 140.817 51.145 140.507 51.145 140.148C51.145 139.789 51.2755 139.479 51.5365 139.218L58.2905 132.464C57.6597 132.007 56.9582 131.654 56.186 131.404C55.4138 131.154 54.6035 131.029 53.7552 131.029Z" fill="#213B22"/>
</g>
<mask id="mask1_5_63" style="mask-type:alpha" maskUnits="userSpaceOnUse" x="47" y="156" width="32" height="32">
<rect x="47.1875" y="156.542" width="31.3229" height="31.3229" fill="#D9D9D9"/>
</mask>
<g mask="url(#mask1_5_63)">
<path d="M62.8489 182.644C61.6308 182.644 60.4834 182.454 59.4067 182.073C58.3299 181.692 57.3457 181.154 56.4538 180.458L54.6267 182.253C54.3874 182.492 54.0829 182.611 53.7131 182.611C53.3433 182.611 53.0388 182.492 52.7995 182.253C52.5602 182.013 52.4406 181.709 52.4406 181.339C52.4406 180.969 52.5602 180.665 52.7995 180.425L54.594 178.631C53.898 177.739 53.3596 176.749 52.9789 175.662C52.5983 174.574 52.408 173.421 52.408 172.203C52.408 169.288 53.4194 166.819 55.4424 164.797C57.4653 162.774 59.9342 161.762 62.8489 161.762H73.2899V172.203C73.2899 175.118 72.2784 177.587 70.2555 179.61C68.2326 181.633 65.7637 182.644 62.8489 182.644ZM62.8489 180.034C65.0241 180.034 66.8731 179.273 68.3957 177.75C69.9183 176.227 70.6797 174.378 70.6797 172.203V164.372H62.8489C60.6737 164.372 58.8248 165.134 57.3022 166.656C55.7795 168.179 55.0182 170.028 55.0182 172.203C55.0182 173.051 55.1487 173.862 55.4097 174.634C55.6708 175.406 56.0297 176.108 56.4865 176.738L63.2405 169.984C63.4797 169.745 63.7843 169.626 64.1541 169.626C64.5238 169.626 64.8284 169.745 65.0676 169.984C65.3287 170.245 65.4592 170.555 65.4592 170.914C65.4592 171.273 65.3287 171.583 65.0676 171.844L58.3136 178.598C58.9444 179.055 59.6459 179.408 60.4181 179.659C61.1903 179.909 62.0006 180.034 62.8489 180.034Z" fill="#213B22"/>
</g>
<mask id="mask2_5_63" style="mask-type:alpha" maskUnits="userSpaceOnUse" x="84" y="137" width="32" height="32">
<rect x="84.5729" y="168.667" width="31.3229" height="31.3229" transform="rotate(-90 84.5729 168.667)" fill="#D9D9D9"/>
</mask>
<g mask="url(#mask2_5_63)">
<path d="M110.675 153.005C110.675 154.223 110.485 155.371 110.104 156.447C109.724 157.524 109.185 158.508 108.489 159.4L110.284 161.227C110.523 161.467 110.643 161.771 110.643 162.141C110.643 162.511 110.523 162.815 110.284 163.055C110.045 163.294 109.74 163.414 109.37 163.414C109 163.414 108.696 163.294 108.457 163.055L106.662 161.26C105.77 161.956 104.781 162.495 103.693 162.875C102.605 163.256 101.452 163.446 100.234 163.446C97.3196 163.446 94.8507 162.435 92.8278 160.412C90.8049 158.389 89.7934 155.92 89.7934 153.005V142.564H100.234C103.149 142.564 105.618 143.576 107.641 145.599C109.664 147.622 110.675 150.09 110.675 153.005ZM108.065 153.005C108.065 150.83 107.304 148.981 105.781 147.458C104.258 145.936 102.41 145.174 100.234 145.174H92.4036V153.005C92.4036 155.18 93.165 157.029 94.6876 158.552C96.2102 160.075 98.0592 160.836 100.234 160.836C101.083 160.836 101.893 160.705 102.665 160.444C103.437 160.183 104.139 159.824 104.77 159.368L98.0157 152.614C97.7764 152.374 97.6568 152.07 97.6568 151.7C97.6568 151.33 97.7764 151.026 98.0157 150.787C98.2767 150.525 98.5867 150.395 98.9456 150.395C99.3045 150.395 99.6144 150.525 99.8755 150.787L106.629 157.541C107.086 156.91 107.44 156.208 107.69 155.436C107.94 154.664 108.065 153.854 108.065 153.005Z" fill="#213B22"/>
</g>
<mask id="mask3_5_63" style="mask-type:alpha" maskUnits="userSpaceOnUse" x="69" y="110" width="32" height="32">
<rect x="69.4167" y="110.062" width="31.3229" height="31.3229" fill="#D9D9D9"/>
</mask>
<g mask="url(#mask3_5_63)">
<path d="M85.0781 136.165C83.86 136.165 82.7126 135.975 81.6359 135.594C80.5591 135.213 79.5749 134.675 78.683 133.979L76.8559 135.773C76.6166 136.013 76.3121 136.132 75.9423 136.132C75.5725 136.132 75.268 136.013 75.0287 135.773C74.7894 135.534 74.6698 135.23 74.6698 134.86C74.6698 134.49 74.7894 134.186 75.0287 133.946L76.8232 132.152C76.1272 131.26 75.5888 130.27 75.2081 129.183C74.8275 128.095 74.6371 126.942 74.6371 125.724C74.6371 122.809 75.6486 120.34 77.6716 118.317C79.6945 116.294 82.1633 115.283 85.0781 115.283H95.5191V125.724C95.5191 128.639 94.5076 131.108 92.4847 133.131C90.4617 135.153 87.9929 136.165 85.0781 136.165ZM85.0781 133.555C87.2533 133.555 89.1022 132.793 90.6249 131.271C92.1475 129.748 92.9088 127.899 92.9088 125.724V117.893H85.0781C82.9029 117.893 81.054 118.655 79.5314 120.177C78.0087 121.7 77.2474 123.549 77.2474 125.724C77.2474 126.572 77.3779 127.383 77.6389 128.155C77.8999 128.927 78.2589 129.628 78.7157 130.259L85.4697 123.505C85.7089 123.266 86.0135 123.146 86.3832 123.146C86.753 123.146 87.0576 123.266 87.2968 123.505C87.5578 123.766 87.6884 124.076 87.6884 124.435C87.6884 124.794 87.5578 125.104 87.2968 125.365L80.5428 132.119C81.1736 132.576 81.8751 132.929 82.6473 133.179C83.4195 133.43 84.2298 133.555 85.0781 133.555Z" fill="#213B22"/>
</g>
<circle cx="16.5" cy="18.5" r="16.5" fill="#192546"/>
<circle cx="136.5" cy="16.5" r="16.5" fill="#192546"/>
<circle cx="77" cy="66" r="61.5" fill="#FFB663" stroke="#95673B" stroke-width="5"/>
<path d="M77 2L77 130" stroke="#95673B" stroke-width="4"/>
<path d="M141 66L13 66" stroke="#95673B" stroke-width="4"/>
<path d="M122.255 111.255L31.7453 20.7451" stroke="#95673B" stroke-width="4"/>
<path d="M31.7455 111.255L122.255 20.7451" stroke="#95673B" stroke-width="4"/>
</svg>
