<svg width="104" height="103" viewBox="0 0 104 103" fill="none" xmlns="http://www.w3.org/2000/svg">
<mask id="mask0_9_69" style="mask-type:alpha" maskUnits="userSpaceOnUse" x="0" y="0" width="104" height="103">
<rect x="0.317017" y="0.277771" width="102.722" height="102.722" fill="#D9D9D9"/>
</mask>
<g mask="url(#mask0_9_69)">
<path d="M51.6781 85.8796C47.6834 85.8796 43.9205 85.2554 40.3894 84.0071C36.8583 82.7587 33.6304 80.9932 30.7057 78.7105L24.7135 84.5956C23.9289 85.3803 22.9302 85.7726 21.7175 85.7726C20.5048 85.7726 19.5061 85.3803 18.7214 84.5956C17.9367 83.8109 17.5444 82.8122 17.5444 81.5995C17.5444 80.3868 17.9367 79.3882 18.7214 78.6035L24.6065 72.7183C22.3238 69.7936 20.5583 66.5479 19.3099 62.9811C18.0616 59.4144 17.4374 55.6336 17.4374 51.6389C17.4374 42.08 20.7544 33.9835 27.3886 27.3494C34.0227 20.7152 42.1192 17.3981 51.6781 17.3981H85.9189V51.6389C85.9189 61.1978 82.6018 69.2943 75.9676 75.9284C69.3335 82.5626 61.237 85.8796 51.6781 85.8796ZM51.6781 77.3194C58.8116 77.3194 64.8751 74.8227 69.8685 69.8293C74.862 64.8358 77.3587 58.7724 77.3587 51.6389V25.9583H51.6781C44.5446 25.9583 38.4812 28.455 33.4877 33.4485C28.4943 38.4419 25.9976 44.5054 25.9976 51.6389C25.9976 54.4209 26.4256 57.0782 27.2816 59.6106C28.1376 62.1429 29.3146 64.4435 30.8127 66.5122L52.9621 44.3627C53.7468 43.578 54.7455 43.1857 55.9582 43.1857C57.1709 43.1857 58.1696 43.578 58.9543 44.3627C59.8103 45.2187 60.2383 46.2353 60.2383 47.4123C60.2383 48.5893 59.8103 49.6058 58.9543 50.4619L36.8048 72.6113C38.8735 74.1094 41.1741 75.2686 43.7064 76.0889C46.2388 76.9093 48.8961 77.3194 51.6781 77.3194Z" fill="black"/>
</g>
</svg>
